<?xml version="1.0" standalone="no"?>
<!DOCTYPE svg PUBLIC "-//W3C//DTD SVG 20010904//EN"
 "http://www.w3.org/TR/2001/REC-SVG-20010904/DTD/svg10.dtd">
<svg version="1.0" xmlns="http://www.w3.org/2000/svg"
 width="512.000000pt" height="512.000000pt" viewBox="0 0 512.000000 512.000000"
 preserveAspectRatio="xMidYMid meet">

<g transform="translate(0.000000,512.000000) scale(0.100000,-0.100000)"
fill="#1b2f2c" stroke="none">
<path d="M2270 5059 c-570 -69 -1079 -317 -1486 -723 -411 -412 -660 -929
-724 -1501 -13 -115 -13 -433 0 -550 38 -348 167 -727 352 -1033 191 -317 523
-649 839 -840 321 -194 673 -312 1046 -352 144 -16 513 -8 647 14 655 106
1230 451 1624 975 265 352 433 766 487 1201 20 161 20 459 0 620 -116 937
-751 1732 -1640 2055 -140 51 -277 87 -442 116 -95 17 -167 22 -373 25 -140 1
-289 -2 -330 -7z m640 -124 c144 -23 255 -49 390 -93 l115 -37 -145 -13 c-718
-62 -1309 -313 -1754 -742 -237 -229 -428 -492 -574 -792 -31 -64 -60 -117
-64 -117 -28 -3 -449 376 -479 432 -8 13 2 40 42 115 139 256 333 499 544 680
402 345 836 529 1380 586 88 9 444 -3 545 -19z m832 -286 c291 -164 567 -413
772 -697 21 -29 36 -55 34 -57 -2 -3 -60 -9 -129 -15 -432 -36 -807 -158
-1129 -367 -311 -202 -562 -480 -722 -797 l-50 -99 -116 7 c-418 25 -838 133
-1182 306 -97 49 -240 134 -240 144 0 4 34 75 76 157 140 274 302 498 503 699
491 489 1168 751 1958 759 l151 1 74 -41z m930 -951 c104 -189 192 -427 238
-649 36 -176 45 -272 45 -489 0 -217 -9 -313 -45 -489 -117 -561 -447 -1084
-902 -1423 -40 -30 -78 -58 -84 -61 -7 -4 8 39 33 96 64 145 156 429 192 587
125 560 101 1089 -74 1616 -78 235 -184 468 -302 664 -18 30 -33 58 -33 62 0
8 152 58 265 86 123 31 317 61 455 71 69 4 134 9 146 10 16 1 31 -17 66 -81z
m-992 -214 c205 -347 344 -733 405 -1124 23 -143 31 -522 16 -676 -39 -378
-141 -737 -313 -1096 l-61 -127 -121 -59 c-174 -86 -365 -151 -557 -192 -101
-21 -305 -47 -313 -39 -3 2 11 92 30 199 79 444 110 792 101 1155 -9 408 -66
686 -192 943 l-51 103 31 67 c131 281 383 567 675 765 56 39 282 165 297 167
1 0 25 -39 53 -86z m-3235 -125 c413 -417 929 -685 1540 -799 132 -24 357 -50
442 -50 95 0 107 -8 151 -102 77 -161 125 -340 159 -588 18 -135 24 -619 9
-714 l-8 -49 -226 6 c-921 24 -1655 299 -2199 823 -80 78 -81 80 -97 154 -40
189 -50 284 -50 515 -1 254 11 364 64 580 30 119 99 325 110 325 3 0 50 -45
105 -101z m110 -1821 c527 -379 1203 -577 2007 -590 166 -3 168 -3 168 -25 0
-67 -95 -676 -116 -747 -6 -18 -15 -19 -153 -13 -251 11 -454 50 -695 134
-584 203 -1082 642 -1353 1193 -50 102 -103 224 -103 238 0 1 35 -26 78 -61
42 -36 118 -93 167 -129z"/>
<path d="M3265 4475 c-590 -112 -1065 -360 -1450 -756 -120 -123 -265 -300
-265 -323 0 -26 32 -56 60 -56 25 0 41 14 107 98 386 486 915 801 1543 918 74
14 146 31 160 38 35 16 40 68 8 90 -27 19 -15 20 -163 -9z"/>
<path d="M3542 2923 c-33 -13 -32 -50 4 -155 178 -522 200 -1083 63 -1630 -16
-64 -29 -128 -29 -142 0 -51 53 -73 89 -37 19 19 63 187 96 361 43 228 57 581
34 816 -21 218 -77 473 -149 682 -36 103 -58 125 -108 105z"/>
<path d="M522 2174 c-14 -10 -22 -25 -22 -44 0 -25 11 -38 73 -84 394 -296
930 -504 1506 -582 l133 -18 19 23 c47 58 15 85 -126 106 -588 85 -1049 261
-1454 554 -46 34 -89 61 -95 61 -6 0 -22 -7 -34 -16z"/>
</g>
</svg>
