<?xml version="1.0" standalone="no"?>
<!DOCTYPE svg PUBLIC "-//W3C//DTD SVG 20010904//EN"
 "http://www.w3.org/TR/2001/REC-SVG-20010904/DTD/svg10.dtd">
<svg version="1.0" xmlns="http://www.w3.org/2000/svg"
 width="512.000000pt" height="512.000000pt" viewBox="0 0 512.000000 512.000000"
 preserveAspectRatio="xMidYMid meet">

<g transform="translate(0.000000,512.000000) scale(0.100000,-0.100000)"
fill="#1b2f2c" stroke="none">
<path d="M2380 5114 c-19 -2 -78 -9 -130 -14 -330 -36 -695 -160 -990 -336
-375 -224 -680 -529 -904 -904 -175 -292 -291 -632 -338 -990 -16 -123 -16
-497 0 -620 82 -623 356 -1150 820 -1581 256 -239 575 -425 922 -539 274 -91
491 -124 800 -124 228 0 329 9 530 50 689 141 1304 583 1674 1204 175 292 291
632 338 990 16 123 16 497 0 620 -47 358 -163 698 -338 990 -224 375 -529 680
-904 904 -289 173 -634 291 -980 336 -88 12 -438 21 -500 14z m565 -203 c453
-78 859 -273 1203 -576 10 -9 8 -29 -8 -101 -20 -85 -79 -285 -86 -293 -2 -2
-54 47 -116 110 -453 458 -1041 727 -1793 823 l-100 12 95 18 c165 30 229 35
460 31 170 -2 254 -8 345 -24z m-801 -217 c567 -65 1076 -269 1474 -589 91
-74 204 -184 296 -289 l60 -67 -42 -85 c-73 -146 -190 -318 -304 -443 l-57
-63 -153 154 c-215 216 -395 349 -662 488 -569 297 -1219 409 -1936 334 l-55
-6 130 129 c142 140 268 240 428 338 164 100 185 109 267 116 107 10 403 1
554 -17z m2298 -679 c86 -110 143 -197 219 -336 l58 -106 -45 -114 c-60 -154
-198 -429 -284 -567 -380 -608 -922 -1050 -1527 -1245 -115 -38 -319 -84 -328
-75 -16 16 -29 153 -29 308 0 205 17 318 73 484 l36 110 115 22 c319 62 609
212 875 452 305 273 548 671 665 1087 17 61 33 117 36 125 6 17 25 -2 136
-145z m-2874 -50 c632 -64 1144 -274 1593 -652 85 -71 226 -214 257 -261 15
-22 14 -25 -14 -48 -52 -43 -217 -151 -294 -192 -109 -58 -259 -111 -390 -138
l-115 -24 -29 38 c-16 20 -81 89 -145 152 -488 483 -1291 659 -2060 449 -40
-11 -76 -18 -78 -15 -7 6 44 147 92 255 45 101 116 232 177 326 l46 71 134 18
c73 10 169 21 213 25 135 14 462 11 613 -4z m3276 -733 c64 -214 96 -437 96
-677 l0 -171 -58 -110 c-433 -813 -1143 -1373 -1925 -1517 l-78 -15 -46 72
c-98 151 -196 359 -241 509 -15 49 -17 69 -9 72 7 2 68 15 136 30 656 141
1312 614 1748 1260 107 159 252 422 317 574 14 35 29 62 31 59 3 -3 16 -41 29
-86z m-3584 -46 c128 -16 280 -46 280 -56 0 -4 -11 -39 -25 -79 -172 -507
-174 -1095 -5 -1677 102 -349 279 -713 503 -1029 46 -66 84 -121 83 -122 -1
-1 -60 13 -132 31 -229 60 -429 144 -639 271 l-111 66 -66 107 c-473 760 -608
1633 -367 2364 41 123 43 127 73 131 74 9 300 5 406 -7z m-640 -31 c0 -3 -16
-61 -35 -128 -76 -270 -100 -471 -92 -791 9 -402 88 -762 253 -1146 29 -68 52
-125 51 -126 -5 -5 -127 147 -185 228 -213 302 -346 631 -409 1013 -26 157
-26 555 0 709 26 155 22 149 114 176 172 51 303 79 303 65z m1195 -112 c222
-91 439 -250 595 -435 l49 -57 -25 -63 c-119 -302 -139 -699 -55 -1061 91
-389 301 -767 597 -1076 59 -61 105 -113 103 -115 -2 -2 -60 -14 -129 -26
-127 -22 -518 -40 -573 -26 -26 6 -112 109 -223 266 -427 604 -640 1328 -584
1985 18 205 51 369 111 553 35 105 24 100 134 55z m2980 -1308 c-81 -215 -194
-422 -337 -614 -92 -124 -335 -366 -463 -462 -188 -140 -394 -253 -610 -333
l-100 -38 -137 141 c-76 77 -138 144 -138 148 0 5 46 19 103 32 277 63 569
190 837 366 299 195 629 515 830 802 24 35 45 61 47 59 2 -2 -12 -48 -32 -101z"/>
</g>
</svg>
