<?xml version="1.0" standalone="no"?>
<!DOCTYPE svg PUBLIC "-//W3C//DTD SVG 20010904//EN"
 "http://www.w3.org/TR/2001/REC-SVG-20010904/DTD/svg10.dtd">
<svg version="1.0" xmlns="http://www.w3.org/2000/svg"
 width="512.000000pt" height="512.000000pt" viewBox="0 0 512.000000 512.000000"
 preserveAspectRatio="xMidYMid meet">

<g transform="translate(0.000000,512.000000) scale(0.100000,-0.100000)"
fill="#000000" stroke="none">
<path d="M1114 4592 c-254 -185 -467 -404 -634 -655 -656 -982 -528 -2293 306
-3133 393 -394 874 -635 1441 -721 136 -20 499 -23 628 -5 462 66 855 226
1214 495 166 124 386 353 525 545 l39 53 -33 34 -32 33 -91 -121 c-111 -148
-305 -344 -445 -451 -57 -43 -105 -77 -106 -75 -2 2 14 89 35 194 58 286 98
648 99 885 l0 76 -50 49 -50 49 0 -180 c0 -289 -41 -635 -115 -970 -45 -205
-34 -184 -127 -234 -145 -78 -259 -128 -405 -176 -79 -26 -145 -46 -147 -43
-2 2 11 69 30 149 210 890 187 1605 -66 2111 -76 151 -204 318 -307 401 -30
25 -32 29 -22 58 11 29 9 34 -22 66 -18 18 -35 31 -38 28 -3 -3 -15 -31 -26
-62 -19 -54 -23 -59 -90 -94 -89 -47 -280 -111 -411 -137 -156 -32 -434 -62
-434 -47 0 18 100 307 139 404 49 117 157 339 223 454 l33 58 -32 32 c-18 18
-34 30 -36 27 -18 -21 -107 -180 -160 -286 -105 -209 -210 -474 -257 -652
l-12 -44 -201 6 c-215 6 -368 22 -378 38 -13 21 -18 213 -9 322 31 357 154
695 376 1028 l94 143 -27 28 c-15 15 -30 28 -34 28 -11 0 -117 -151 -184 -262
-218 -359 -332 -759 -323 -1136 l3 -144 -55 6 c-134 16 -727 149 -746 168 -3
3 4 50 15 105 119 583 448 1098 931 1458 l98 73 -32 31 c-17 17 -34 31 -36 30
-3 0 -28 -17 -56 -37z m1716 -1829 c97 -100 164 -197 226 -328 65 -137 65
-137 7 -179 -64 -47 -227 -127 -338 -166 -289 -101 -624 -150 -1036 -150 -329
0 -623 27 -992 90 -201 34 -470 89 -487 100 -6 4 -19 54 -28 111 -18 121 -24
561 -7 578 7 7 47 0 121 -19 275 -71 594 -130 903 -167 186 -22 707 -25 851
-5 256 36 522 118 645 201 17 11 34 20 40 20 5 1 48 -38 95 -86z m334 -625
c43 -152 76 -403 76 -575 l0 -111 -61 -55 c-231 -210 -789 -322 -1429 -288
-343 19 -594 48 -990 117 -141 24 -210 41 -222 52 -28 29 -136 231 -188 355
-50 119 -120 333 -120 369 0 14 5 18 18 14 36 -11 323 -65 472 -90 399 -66
715 -90 1095 -83 383 7 619 40 874 123 118 38 319 134 396 188 28 19 53 35 57
35 4 1 14 -23 22 -51z m66 -954 c-16 -178 -47 -389 -86 -574 -34 -167 -89
-388 -97 -396 -9 -9 -174 -34 -301 -45 -241 -22 -520 2 -772 66 -414 105 -778
311 -1087 614 -107 105 -244 261 -255 290 -1 4 82 -7 185 -25 432 -73 795
-106 1163 -107 273 -1 411 9 610 44 254 44 464 124 609 233 19 14 36 24 38 22
2 -2 -1 -57 -7 -122z"/>
</g>
</svg>
