<?xml version="1.0" standalone="no"?>
<!DOCTYPE svg PUBLIC "-//W3C//DTD SVG 20010904//EN"
 "http://www.w3.org/TR/2001/REC-SVG-20010904/DTD/svg10.dtd">
<svg version="1.0" xmlns="http://www.w3.org/2000/svg"
 width="2133.000000pt" height="2133.000000pt" viewBox="0 0 2133.000000 2133.000000"
 preserveAspectRatio="xMidYMid meet">

<g transform="translate(0.000000,2133.000000) scale(0.100000,-0.100000)"
fill="#1b2f2c" stroke="none">
<path d="M9905 21304 c-726 -53 -1510 -197 -2230 -409 -1270 -375 -2494 -1002
-3569 -1829 -569 -438 -1227 -1103 -1821 -1841 -296 -367 -627 -838 -789
-1122 -234 -411 -564 -1087 -763 -1563 -272 -651 -586 -1900 -657 -2615 -77
-771 -73 -1893 10 -2615 64 -564 263 -1418 469 -2020 331 -966 852 -1993 1405
-2770 652 -916 1635 -1901 2550 -2553 779 -556 1811 -1080 2780 -1412 602
-206 1456 -405 2020 -469 751 -87 1959 -87 2710 0 584 67 1443 269 2070 487
955 332 1963 847 2730 1394 911 649 1894 1632 2543 2543 463 649 925 1511
1252 2335 307 775 565 1814 639 2575 35 354 41 536 41 1245 0 840 -13 1098
-81 1580 -69 497 -270 1310 -459 1865 -182 533 -489 1206 -828 1815 -423 761
-918 1421 -1564 2087 -982 1011 -1807 1620 -2978 2198 -885 436 -1689 716
-2587 899 -521 106 -811 142 -1458 182 -167 10 -1330 21 -1435 13z m1115 -484
c1154 -47 2303 -284 3320 -687 627 -248 1329 -607 1817 -929 135 -89 161 -110
151 -120 -3 -2 -176 14 -384 36 -208 22 -437 44 -509 50 -1183 93 -2747 13
-3903 -201 -2172 -401 -4188 -1286 -5830 -2562 -108 -83 -197 -146 -202 -141
-16 17 -139 340 -195 514 -232 718 -471 1755 -478 2073 l-2 88 35 30 c144 119
797 516 1190 721 1507 789 3308 1196 4990 1128z m3595 -2140 c561 -11 1045
-27 1240 -40 72 -5 371 -45 665 -90 294 -44 571 -86 615 -92 l80 -11 339 -336
c482 -479 773 -791 1064 -1140 220 -263 364 -473 346 -502 -9 -16 -121 -6
-354 31 -551 88 -1004 115 -1760 107 -509 -6 -628 -11 -1065 -47 -1035 -87
-2008 -287 -3115 -640 -1175 -375 -2447 -949 -3508 -1582 -568 -339 -1332
-851 -1652 -1109 -54 -43 -100 -79 -102 -79 -7 0 -236 265 -324 375 -256 318
-560 756 -824 1184 -141 231 -268 458 -422 754 l-150 290 29 27 c189 185 463
399 791 618 1215 815 2386 1365 3777 1775 847 250 1886 444 2705 506 154 12
1050 12 1625 1z m-10268 -190 c8 -25 29 -136 48 -248 96 -568 313 -1348 546
-1964 389 -1030 1042 -2165 1763 -3068 705 -884 1803 -1883 2806 -2555 223
-150 397 -255 625 -380 88 -49 161 -89 162 -90 5 -3 -37 -570 -52 -705 -61
-550 -193 -1333 -277 -1640 -41 -149 -55 -165 -141 -156 -139 16 -408 89 -732
200 -1193 407 -2218 973 -3109 1715 -337 280 -709 637 -983 941 -1181 1313
-2008 2919 -2479 4815 -57 227 -224 1027 -224 1069 0 19 331 454 494 650 199
239 420 480 706 770 359 363 569 553 725 657 79 52 105 50 122 -11z m13068
-2380 c479 -22 940 -73 1452 -160 246 -42 420 -80 490 -106 37 -13 50 -27 94
-97 63 -102 404 -784 523 -1047 133 -293 203 -474 311 -800 100 -307 201 -643
207 -695 l3 -30 -95 2 c-64 1 -162 14 -301 41 -1254 245 -2549 254 -3894 26
-816 -138 -1748 -404 -2478 -708 -704 -293 -1542 -744 -2257 -1214 -335 -220
-575 -396 -822 -604 l-116 -98 -154 86 c-593 333 -1157 734 -1753 1244 -249
213 -875 799 -875 819 0 29 446 355 900 658 1594 1063 3328 1841 5091 2283
952 239 1854 370 2779 403 204 8 699 6 895 -3z m-15405 -690 c32 -118 82 -303
110 -410 786 -2965 2533 -5374 4905 -6767 538 -316 998 -528 1641 -756 394
-140 678 -222 942 -272 94 -18 145 -32 149 -42 22 -58 -228 -773 -430 -1228
-272 -613 -781 -1556 -896 -1659 -29 -26 -80 -23 -195 14 -496 159 -1730 800
-2396 1243 -1359 906 -2563 2092 -3524 3470 -393 564 -720 1117 -1049 1777
-227 453 -345 719 -598 1343 l-44 109 63 314 c174 863 390 1535 749 2324 138
302 407 824 451 873 15 17 18 15 39 -50 13 -37 50 -165 83 -283z m15726 -2810
c79 -555 107 -869 125 -1392 31 -889 -65 -2011 -257 -2993 -345 -1768 -1045
-3516 -2049 -5120 -358 -571 -676 -1015 -1193 -1663 -261 -326 -275 -341 -320
-356 -617 -200 -1162 -335 -1727 -430 -511 -85 -1237 -154 -1223 -117 2 6 98
132 213 281 345 446 565 760 807 1150 1186 1915 1894 4250 2063 6805 27 411
35 691 35 1195 0 871 -41 1673 -106 2106 -6 39 -4 43 29 69 103 78 750 293
1296 430 769 193 1709 337 2166 331 l100 -1 41 -295z m1251 266 c384 -41 796
-105 1323 -207 173 -34 320 -66 326 -73 25 -25 127 -724 154 -1051 44 -539 42
-1206 -6 -1775 -169 -2025 -977 -3982 -2304 -5575 -212 -255 -354 -410 -635
-691 -527 -527 -1011 -923 -1614 -1319 -405 -266 -1041 -627 -1080 -614 -5 2
56 97 137 210 477 668 815 1192 1137 1764 918 1630 1522 3396 1820 5322 91
592 99 751 99 1928 0 1210 -9 1410 -85 1868 -21 130 -39 240 -39 244 0 15 536
-7 767 -31z m-5365 -1021 c49 -273 108 -1348 108 -1970 0 -3096 -887 -6068
-2473 -8290 -195 -272 -599 -784 -720 -912 -130 -137 -215 -170 -407 -159
-287 17 -739 66 -1040 112 -537 82 -1190 244 -1705 422 -343 119 -752 274
-847 323 l-39 20 21 29 c11 16 78 78 148 138 360 307 1068 1016 1432 1432 274
313 702 913 971 1360 473 787 872 1678 1149 2565 315 1011 483 1933 571 3125
l12 165 136 105 c905 695 1284 937 2286 1454 198 102 364 184 370 183 5 -2 17
-48 27 -102z m-13035 -807 c34 -62 100 -196 148 -298 562 -1205 1380 -2420
2349 -3490 186 -206 733 -752 926 -926 548 -493 1058 -885 1655 -1272 788
-510 1516 -886 2239 -1158 130 -49 205 -82 202 -90 -8 -21 -313 -409 -421
-534 -184 -215 -392 -435 -692 -730 -327 -324 -453 -438 -777 -708 l-230 -191
-85 46 c-665 359 -1153 687 -1696 1139 -1105 919 -2016 2076 -2655 3371 -467
945 -748 1814 -919 2838 -44 261 -72 538 -96 935 -40 674 -47 1180 -16 1180 4
0 34 -51 68 -112z"/>
</g>
</svg>
